Coordinates
version=1
nRows=26
nColumns=24
inDegrees=yes

Units are S.I. units (second, meters, Newtons, ...)
Angles are in degrees.

endheader
time	pelvis_tilt	pelvis_list	pelvis_rotation	pelvis_tx	pelvis_ty	pelvis_tz	hip_flexion_r	hip_adduction_r	hip_rotation_r	knee_angle_r	ankle_angle_r	subtalar_angle_r	mtp_angle_r	hip_flexion_l	hip_adduction_l	hip_rotation_l	knee_angle_l	ankle_angle_l	subtalar_angle_l	mtp_angle_l	lumbar_extension	lumbar_bending	lumbar_rotation
      4.47500000	    -18.58432480	      2.68778136	     -6.03146682	     -1.28881858	     -0.04410823	     -0.34084443	      1.17171318	     -1.77608361	     -1.55768978	    -18.02548369	     10.87855773	     -1.64796318	     -2.10360415	     45.63940323	     -3.13795579	    -19.16775758	    -12.43972523	     -1.89288938	      7.14566103	     22.71890923	     18.86802322	     -2.04231638	     -6.51051914
      4.48000000	    -18.56260524	      2.97717595	     -6.06818160	     -1.28083136	     -0.04497574	     -0.34133982	      1.04808508	     -2.22551609	     -1.45909547	    -18.72680110	     10.35069319	     -1.56989557	     -1.94485406	     45.70266481	     -2.89524211	    -19.04027887	    -13.12960328	     -2.57459274	      6.56432712	     22.74803068	     19.00303093	     -2.35141170	     -6.37923365
      4.48500000	    -18.50942153	      3.24218903	     -6.08386591	     -1.27288784	     -0.04576048	     -0.34199041	      0.96078339	     -2.68230254	     -1.52646043	    -19.53444202	      9.74616759	     -1.36548304	     -1.58087390	     45.73214154	     -2.62667661	    -18.70298085	    -13.84935726	     -3.44399990	      5.63831532	     22.84648383	     19.08855276	     -2.62716376	     -6.29283708
      4.49000000	    -18.50517143	      3.60769669	     -6.09945630	     -1.26475959	     -0.04650212	     -0.34249732	      0.93766986	     -3.20659615	     -1.40000004	    -20.35246024	      9.05020699	     -1.41055174	     -1.39357516	     45.82094353	     -2.31445427	    -18.55048704	    -14.66665106	     -4.39443261	      4.85638359	     22.78083832	     19.27550996	     -3.01856187	     -6.19043311
      4.49500000	    -18.49444544	      3.95858019	     -6.09245759	     -1.25665635	     -0.04718004	     -0.34308398	      0.95860796	     -3.72792779	     -1.36633038	    -21.24233117	      8.26931895	     -1.42295794	     -1.14684359	     45.93100652	     -1.98486381	    -18.26685397	    -15.55806621	     -5.43371871	      3.82351582	     22.61043587	     19.44792468	     -3.39865545	     -6.09086849
      4.50000000	    -18.49258095	      4.32471726	     -6.05951938	     -1.24852065	     -0.04778934	     -0.34374853	      1.04381232	     -4.27401821	     -1.39298324	    -22.20876108	      7.37723442	     -1.46198916	     -0.80580887	     46.05551741	     -1.61047894	    -17.87062854	    -16.48160560	     -6.48935010	      2.68099288	     22.31402238	     19.63420110	     -3.79306330	     -6.03170893
      4.50500000	    -18.52283747	      4.66630382	     -5.86836591	     -1.24029803	     -0.04843057	     -0.34472095	      1.17167077	     -4.84810847	     -1.81951824	    -23.16942286	      6.28740302	     -1.50265607	      0.74641599	     46.26175215	     -1.12116471	    -17.23886946	    -17.51810759	     -7.42238108	      1.52410365	     21.51043390	     19.84866578	     -4.20163670	     -6.10718388
      4.51000000	    -18.48167395	      5.08048726	     -5.92341133	     -1.23214822	     -0.04879634	     -0.34526546	      1.33411657	     -5.41824108	     -1.60133882	    -24.25569867	      5.12172860	     -1.80109146	      0.98517657	     46.34686744	     -0.76082926	    -16.89551827	    -18.51083002	     -8.27827573	      0.36764511	     21.01328795	     20.01150567	     -4.61783395	     -5.93581658
      4.51500000	    -18.50138161	      5.44866274	     -5.77238524	     -1.22394821	     -0.04925612	     -0.34628920	      1.56876217	     -6.02842460	     -1.93205371	    -25.31273183	      3.71019828	     -2.08081378	      3.23897381	     46.56829773	     -0.24672152	    -16.21179408	    -19.69802280	     -8.80865428	     -0.63173471	     19.04783932	     20.21588425	     -5.02287096	     -5.92649338
      4.52000000	    -18.47400890	      5.88245675	     -5.73177888	     -1.21568145	     -0.04954289	     -0.34695656	      1.84000562	     -6.63609935	     -1.90440369	    -26.53645490	      2.29577412	     -2.45045182	      3.43028187	     46.66104311	      0.23092293	    -15.72903387	    -20.70215049	     -9.35790927	     -1.80510300	     18.53529248	     20.40740269	     -5.49046535	     -5.83146456
      4.52500000	    -18.51615061	      6.26211184	     -5.55489838	     -1.20742024	     -0.04991197	     -0.34812216	      2.21703475	     -7.28571732	     -2.29656338	    -27.73668124	      0.59447272	     -2.81820188	      5.85003238	     46.87714464	      0.81498577	    -14.97761164	    -21.89456052	     -9.45812825	     -2.62749769	     16.25078005	     20.64069042	     -5.89228906	     -5.80006749
      4.53000000	    -18.50753263	      6.66890284	     -5.44101060	     -1.19924554	     -0.05019787	     -0.34911257	      2.63445963	     -7.93061854	     -2.49339008	    -29.07934232	     -1.12232628	     -3.28736859	      7.30737516	     47.00623756	      1.37419725	    -14.40199020	    -22.99337637	     -9.51736765	     -3.58156860	     14.89274642	     20.81794923	     -6.32168987	     -5.75371931
      4.53500000	    -18.48923389	      7.04624772	     -5.35821686	     -1.19107613	     -0.05037380	     -0.35011828	      3.09758144	     -8.54568082	     -2.62960611	    -30.44791604	     -3.06925940	     -3.86342332	      8.92268443	     47.09778453	      1.89537091	    -13.94120319	    -24.08180865	     -9.38477080	     -4.40568701	     13.38071935	     20.98172328	     -6.70040111	     -5.67499184
      4.54000000	    -18.43284210	      7.42617050	     -5.31329187	     -1.18289409	     -0.05045666	     -0.35105407	      3.57631135	     -9.15213435	     -2.67624785	    -31.84176771	     -5.18263774	     -4.62507724	     10.73619809	     47.09680127	      2.40400916	    -13.53144981	    -25.11488487	     -9.00374315	     -5.02086652	     11.86159753	     21.11446597	     -7.07221185	     -5.52449722
      4.54500000	    -18.36863687	      7.78990112	     -5.27638962	     -1.17481432	     -0.05049535	     -0.35197944	      4.12020619	     -9.73358790	     -2.67822476	    -33.31103929	     -7.37918402	     -5.46329859	     12.41452166	     47.05356077	      2.89341380	    -13.21048693	    -26.08634626	     -8.52697425	     -5.54859496	     10.56118258	     21.22003370	     -7.42582647	     -5.37292447
      4.55000000	    -18.29600183	      8.13702143	     -5.25396732	     -1.16680304	     -0.05047714	     -0.35288247	      4.71735776	    -10.28373762	     -2.61734998	    -34.83195034	     -9.65424012	     -6.38387238	     13.95606117	     46.95547601	      3.35837451	    -12.97732682	    -26.98274475	     -7.94849980	     -5.97497796	      9.43811656	     21.30652279	     -7.75681490	     -5.20870449
      4.55500000	    -18.22236215	      8.47451627	     -5.24639146	     -1.15888484	     -0.05041423	     -0.35375170	      5.37923741	    -10.80511980	     -2.48791068	    -36.41087696	    -11.95601912	     -7.35911343	     15.29264009	     46.80915386	      3.79938276	    -12.83775500	    -27.79391134	     -7.30203689	     -6.31361723	      8.53426885	     21.37836511	     -8.07332993	     -5.03030801
      4.56000000	    -18.11720286	      8.78101400	     -5.28087563	     -1.15117608	     -0.05027960	     -0.35457653	      6.09107516	    -11.26616957	     -2.26091833	    -38.07661553	    -14.18641657	     -8.34452943	     16.09040787	     46.58784336	      4.18816972	    -12.76491808	    -28.50578008	     -6.68054673	     -6.67152979	      8.00070553	     21.38730892	     -8.34453328	     -4.79868929
      4.56500000	    -18.09349778	      9.10627884	     -5.25472714	     -1.14332927	     -0.05017851	     -0.35540639	      6.88107871	    -11.72938240	     -2.04105667	    -39.69476073	    -16.41891657	     -9.41563348	     17.32017347	     46.38959272	      4.60133740	    -12.81539773	    -29.14423672	     -5.89220940	     -6.72688414	      7.35003233	     21.50754501	     -8.65373360	     -4.67950090
      4.57000000	    -17.94912923	      9.44990409	     -5.22159525	     -1.13570082	     -0.04993429	     -0.35626592	      7.61271957	    -12.21710783	     -1.85145785	    -41.43115285	    -18.39788612	    -10.33951485	     17.37872862	     46.01065322	      5.07843956	    -12.84256601	    -29.61559637	     -5.29398889	     -7.05626586	      7.30565743	     21.46151352	     -8.99557188	     -4.54259272
      4.57500000	    -17.95398449	      9.66966920	     -5.34007874	     -1.12834709	     -0.04975657	     -0.35685339	      8.59781611	    -12.45000171	     -1.31182185	    -43.15248107	    -20.35708581	    -11.44084803	     18.18248759	     45.78155675	      5.26070199	    -13.05148916	    -30.12739940	     -4.47226628	     -6.90872124	      7.08560810	     21.54946675	     -9.14660682	     -4.25158497
      4.58000000	    -17.84816837	      9.99059294	     -5.29930559	     -1.12086517	     -0.04945531	     -0.35764774	      9.42826048	    -12.85773054	     -1.05746896	    -44.88307009	    -22.00213047	    -12.38556042	     18.33264172	     45.35841016	      5.69647580	    -13.21794802	    -30.45043465	     -3.81810510	     -7.02730001	      7.09876599	     21.52668641	     -9.47286069	     -4.16854417
      4.58500000	    -17.91655996	     10.19396541	     -5.37404738	     -1.11363142	     -0.04925316	     -0.35823840	     10.51793759	    -13.02337896	     -0.50946524	    -46.57535051	    -23.52048295	    -13.37727186	     19.41437114	     45.11538987	      5.86762244	    -13.52215529	    -30.81016138	     -2.99728814	     -6.72091172	      7.03467831	     21.66560848	     -9.61347928	     -3.96998472
      4.59000000	    -17.79158919	     10.44979664	     -5.41019867	     -1.10644067	     -0.04879667	     -0.35885269	     11.40739628	    -13.26983357	     -0.09351522	    -48.28593112	    -24.66942964	    -14.21613566	     19.50402798	     44.60200731	      6.18356110	    -13.75700532	    -31.00018858	     -2.33958329	     -6.67671482	      7.17706919	     21.58949396	     -9.85592115	     -3.81889164
      4.59500000	    -17.78945877	     10.63168265	     -5.52828840	     -1.09941322	     -0.04839959	     -0.35927165	     12.48074276	    -13.32915601	      0.53717144	    -49.97736108	    -25.52591640	    -14.91110932	     19.78531630	     44.20151713	      6.31636656	    -14.10824166	    -31.17894075	     -1.60525339	     -6.37935009	      7.45264131	     21.63499492	     -9.98223893	     -3.62287134
      4.60000000	    -17.77806594	     10.81542672	     -5.58634862	     -1.09242258	     -0.04795423	     -0.35973784	     13.53417058	    -13.39804332	      1.05134904	    -51.62861143	    -26.03626395	    -15.49744197	     20.06660364	     43.75815410	      6.50696511	    -14.40505883	    -31.28468520	     -0.93353839	     -6.11250936	      7.73691522	     21.65983811	    -10.13804840	     -3.49612512
